<?xml version="1.0" encoding="UTF-8"?><svg id="Layer_1" xmlns="http://www.w3.org/2000/svg" viewBox="0 0 1024 1024"><g opacity=".75"><path d="M855.19,624.29c-4.19-16.57-7.56-34.88-11.3-55.77-33.09,10.76-68.89,28.67-103.45,58.56,37.04,.39,75.27-.52,114.75-2.79Z"/><path d="M675.55,205.05c.08-.1,.15-.19,.23-.29-.08,.1-.15,.19-.23,.29-.05,.06-.09,.11-.14,.17,.05-.05,.09-.11,.14-.17Z"/><path d="M881.96,687.51c-.11-.16-.21-.32-.32-.48-.12-.19-.26-.38-.38-.56-.11-.17-.21-.33-.32-.5-.57-.87-1.14-1.74-1.69-2.61-.32-.51-.63-1.02-.95-1.53-.33-.53-.66-1.05-.98-1.58-.38-.63-.75-1.27-1.12-1.9-.24-.41-.48-.81-.71-1.22-.41-.72-.82-1.45-1.22-2.18-.17-.31-.35-.62-.52-.94-.44-.81-.87-1.62-1.29-2.44-.12-.23-.24-.46-.36-.69-.46-.89-.91-1.78-1.35-2.68-.07-.15-.15-.3-.22-.45-.48-.97-.94-1.95-1.4-2.94-.03-.06-.06-.12-.09-.18-4.94-10.63-8.82-21.79-12.14-33.87-34.84,2.03-69,3.32-101.98,3.32-7.43,0-14.81-.06-22.14-.16-1.57,1.45-3.13,2.91-4.69,4.41-12.62,12.12-24.34,24.1-35.23,35.84,19.61,31.55,37.79,65.06,54.09,100.71,51.64-15.94,102.94-36.1,152.68-61.48,.59,.87,1.18,1.75,1.78,2.64-7.57-11.27-14.12-20.67-18.67-27.4-.09-.14-.18-.27-.27-.41-.17-.25-.33-.49-.49-.73Z"/><path d="M903.28,718.87c-50.09,25.61-101.75,45.96-153.75,62.05,12.21,27.24,23.53,55.47,33.4,85.15-3.49-3.24-6.88-6.44-10.12-9.56-8.89-25.58-18.97-49.94-29.64-73.66-12.19,3.69-24.38,7.22-36.59,10.45,13.47,10.61,23.34,19.22,28.26,24.48,28.63,30.63,163.93,175.08,225.21,118.17,49.89-46.33-16.28-156.49-56.76-217.08Z"/><path d="M688.23,679.19c-20.53,22.49-37.95,43.96-52.55,63.51,22.72,14.88,43.32,29.53,60,42.19,.18,.14,.37,.28,.55,.42,.84,.64,1.67,1.27,2.49,1.9,.26,.2,.51,.39,.77,.59,.19,.15,.39,.3,.58,.44,13.48-3.5,26.96-7.36,40.42-11.42-15.81-34.47-33.35-66.98-52.25-97.63Z"/></g><g><path d="M569.77,525.76c-40.31-42.49-82.6-79.67-124.94-112.05-24.67,47.09-45.03,99.72-61.07,157.79,36.75,12.85,75.66,23.46,116.65,31.87,19.41-26.95,42.33-53.25,69.36-77.61Z"/><path d="M250.3,285.25c28.17,14.1,56.89,29.65,85.76,46.88,19.94-7.82,38.61-17.3,55.95-27.99-35.65-10.38-71.48-28.82-102.93-56.95-13.38,11.94-26.39,24.64-38.79,38.06Z"/><path d="M574.32,530.5c-25.94,23.35-48.09,48.52-66.91,74.35,45.32,8.96,93.22,15.18,143.59,18.76-24.22-33.48-49.92-64.53-76.68-93.11Z"/><path d="M675.78,204.76c-.08,.1-.15,.19-.23,.29-.05,.06-.09,.11-.14,.17,.05-.05,.09-.11,.14-.17,.08-.1,.15-.19,.23-.29Z"/><path d="M574.57,521.34c7.36-6.45,14.97-12.77,22.94-18.9,72.55-55.71,160.26-89.46,262.17-101.21,13.46-36.8,28.68-68.35,34.71-82.41,13.13-30.64,70.02-170.69-30.63-210.08-97.82-38.28-133.66,26.79-183.81,90.74,77.49,41.89,148.5,82.83,212.93,122.77-.91,2.06-1.93,4.36-3.09,6.92-69.2-43.04-141.74-84.57-214.44-123.9-44.74,55.85-92.67,93.02-162.74,105.14-24.1,29.15-45.48,61.85-64.59,97.47,42.88,32.74,85.72,70.39,126.55,113.44Zm130.38-354.4c2.79-3.6,5.58-7.15,8.37-10.61,56-22.03,113.32-33.64,168.18-38.59,2.86,1.83,5.51,3.79,8.02,5.82-60.05,4.78-123.29,17.66-184.58,43.38Z"/><path d="M164.47,422.11c1.93,9.87,3.29,19.58,4.17,29.06,1.63,1.38,3.17,2.78,4.83,4.15,58.1,48.1,126.24,86.06,204.03,113.99,16.24-58.8,37.02-111.94,62.06-159.62-34.87-26.34-69.67-49.65-103.19-69.8-.33-.2-.66-.38-.98-.57-4.67,1.78-9.31,3.62-14.12,5.21-34.17,11.28-69.57,16.91-106.08,16.91-7.08,0-14.21-.31-21.38-.77-11.5,19.42-21.57,39.81-29.33,61.44Z"/><path d="M328.04,335.05c-27.68-16.35-55.21-31.26-82.2-44.73-17.74,19.71-34.04,40.98-48.16,63.82,42.03,2.11,82.62-3.01,121.52-15.85,3.01-1,5.89-2.16,8.85-3.24Z"/><path d="M382.06,578.01c-7.42,27.58-14.12,56.05-19.6,86.05,0,0,0,0,0,0,15.84-6.29,32.56-10.96,50.5-12.59,15.39-1.4,33.36,1.13,52.8,6.47,8.93-16.14,19.11-32.38,30.35-48.48-40.03-8.35-78.03-18.86-114.04-31.46Z"/><path d="M169.35,460.44c3.32,54.06-8.63,99.88-19.5,125.64,7.43,46.2,24.15,93.62,50.02,142.16-2.7-.39-5.42-.88-8.16-1.56-23.15-44.36-38.71-87.82-46.64-130.31-17.61,35.13-45.9,90.7,31.54,125.12,61.88,27.51,112.96-26,178.69-54.46,5.71-31.86,12.7-62.13,20.56-91.33-78.68-28.24-147.68-66.59-206.51-115.27Z"/><path d="M161.83,410c6.86-17.39,15.12-34,24.4-49.93-14.51-1.23-29.16-3.24-43.97-6.11-1.03-2.39-2.06-4.77-3.08-7.17,17.21,3.52,34.18,5.77,50.95,6.96,14.49-23.83,31.31-45.98,49.66-66.47-51.15-25.22-100.23-45.53-144.38-61.66-.68-2.58-1.39-5.18-2-7.7,45.92,16.62,97.3,37.76,150.91,64.28,12.77-13.89,26.14-27.08,39.94-39.41-56.92-52.94-143.06-151.22-182.04-120.91-39.39,30.63,0,140.06,43.76,240.73,6.95,15.98,12.13,31.85,15.86,47.39Z"/><path d="M442.7,403.82c17.92-33.31,37.75-64.17,60.03-91.87-9.13,1.24-18.6,2.1-28.5,2.51-23.16,.97-48.28-1.52-73.69-8.01-17.75,11.35-36.86,21.53-57.36,29.95,32.4,19.62,65.9,42.08,99.52,67.43Z"/><path d="M286.19,244.58c-.05-.05-.1-.09-.16-.14-.18-.16-.36-.33-.54-.5,.18,.17,.36,.34,.54,.5,.05,.05,.11,.09,.16,.14Z"/><path d="M972.48,548.23c-49.99-4.21-93.1,1.94-129.77,13.73-1.62-9.05-3.33-18.57-5.22-28.66-6.73-35.92,4.95-83.35,19.71-125.17-99.33,11.95-184.84,45.14-255.64,99.49-7.8,5.99-15.26,12.18-22.47,18.49,28.07,29.99,55.01,62.62,80.27,97.97,23.26,1.51,47.02,2.47,71.3,2.87-2.47,2.23-4.85,4.45-7.15,6.66-.05,.05-.1,.1-.15,.14-19.94-.4-39.54-1.17-58.77-2.34,8.42,12.03,16.63,24.38,24.62,37.03-1.55,1.67-3.09,3.33-4.61,4.99-9.18-14.63-18.64-28.87-28.41-42.65-53.85-3.61-104.88-10.27-153.04-19.96-11.49,16.25-21.87,32.66-30.97,48.99,49.94,15.03,108.52,47.35,157.99,79.32-42.26,56.67-60.98,97.2-61.26,97.82l11.95,5.44c.44-.96,44.62-96.47,151.75-199.3,44.52-42.74,122.18-91.62,238.74-81.78,3.1,.26,5.32,.44,6.55,.44v-13.13c-1.03,0-2.87-.17-5.44-.38Z"/></g></svg>