<?xml version="1.0" encoding="UTF-8"?><svg id="Layer_1" xmlns="http://www.w3.org/2000/svg" viewBox="0 0 1024 1024"><path d="M574.32,530.5c-25.94,23.35-48.09,48.52-66.91,74.35,45.32,8.96,93.22,15.18,143.59,18.76-24.22-33.48-49.92-64.53-76.68-93.11Z"/><path d="M569.77,525.76c-40.31-42.49-82.6-79.67-124.94-112.05-24.67,47.09-45.03,99.72-61.07,157.79,36.75,12.85,75.66,23.46,116.65,31.87,19.41-26.95,42.33-53.25,69.36-77.61Z"/><path d="M328.04,335.05c-27.68-16.35-55.21-31.26-82.2-44.73-17.73,19.71-34.04,40.98-48.16,63.82,42.03,2.11,82.62-3.01,121.52-15.85,3.01-1,5.89-2.16,8.85-3.24Z"/><path d="M675.78,204.76c-.08,.09-.15,.19-.23,.28-.05,.06-.09,.11-.14,.17,.05-.05,.09-.11,.14-.17,.08-.1,.15-.19,.23-.29Z"/><path d="M574.57,521.34c7.36-6.45,14.97-12.77,22.94-18.9,72.55-55.71,160.26-89.46,262.17-101.21,13.46-36.8,28.68-68.35,34.71-82.41,13.13-30.64,70.02-170.69-30.63-210.08-97.82-38.28-133.66,26.79-183.81,90.74,77.49,41.89,148.5,82.83,212.93,122.77-.91,2.06-1.93,4.36-3.09,6.92-69.2-43.04-141.74-84.57-214.44-123.9-44.74,55.85-92.67,93.02-162.74,105.14-24.1,29.15-45.48,61.85-64.59,97.47,42.88,32.74,85.72,70.39,126.55,113.44Zm130.38-354.4c2.79-3.6,5.58-7.15,8.37-10.61,56-22.03,113.32-33.64,168.18-38.59,2.86,1.83,5.51,3.79,8.02,5.82-60.05,4.78-123.29,17.66-184.58,43.38Z"/><path d="M164.47,422.11c1.93,9.87,3.29,19.58,4.17,29.06,1.63,1.38,3.17,2.78,4.83,4.15,58.1,48.1,126.24,86.06,204.03,113.99,16.24-58.8,37.02-111.94,62.06-159.62-34.87-26.34-69.67-49.65-103.19-69.8-.33-.2-.66-.38-.98-.57-4.67,1.78-9.31,3.62-14.12,5.21-34.17,11.28-69.57,16.91-106.08,16.91-7.08,0-14.21-.31-21.38-.77-11.5,19.42-21.57,39.81-29.33,61.44Z"/><path d="M250.3,285.25c28.17,14.1,56.89,29.65,85.76,46.88,19.94-7.82,38.61-17.3,55.95-27.99-35.65-10.38-71.48-28.82-102.93-56.95-13.38,11.94-26.39,24.64-38.79,38.06Z"/><path d="M169.35,460.44c3.32,54.06-8.63,99.88-19.5,125.64,7.43,46.2,24.15,93.62,50.02,142.16-2.7-.39-5.42-.88-8.16-1.56-23.15-44.36-38.71-87.82-46.64-130.31-17.61,35.13-45.9,90.7,31.54,125.12,61.88,27.51,112.96-26,178.69-54.46,5.71-31.86,12.7-62.13,20.56-91.33-78.68-28.24-147.68-66.59-206.51-115.26Z"/><path d="M161.83,410c6.86-17.39,15.12-34,24.4-49.93-14.51-1.23-29.16-3.24-43.97-6.11-1.03-2.39-2.06-4.77-3.08-7.17,17.21,3.52,34.18,5.77,50.95,6.96,14.49-23.83,31.31-45.98,49.66-66.47-51.15-25.22-100.23-45.53-144.38-61.66-.68-2.58-1.39-5.18-2-7.7,45.92,16.62,97.3,37.76,150.91,64.28,12.77-13.89,26.14-27.08,39.94-39.41-56.92-52.94-143.06-151.22-182.04-120.91-39.39,30.63,0,140.06,43.76,240.73,6.95,15.98,12.13,31.85,15.86,47.39Z"/><path d="M382.06,578.01c-7.42,27.58-14.12,56.05-19.6,86.05,0,0,0,0,0,0,15.84-6.29,32.56-10.96,50.5-12.59,15.39-1.4,33.36,1.12,52.8,6.46,8.93-16.14,19.11-32.38,30.35-48.47-40.03-8.35-78.03-18.86-114.04-31.46Z"/><path d="M286.19,244.58c-.05-.05-.1-.09-.15-.14-.17-.16-.35-.33-.53-.49,.18,.16,.35,.33,.53,.49,.05,.05,.1,.09,.15,.13Z"/><path d="M442.7,403.82c17.92-33.31,37.75-64.17,60.03-91.87-9.13,1.24-18.6,2.1-28.5,2.51-23.16,.97-48.28-1.52-73.69-8.01-17.75,11.35-36.86,21.53-57.36,29.95,32.4,19.62,65.9,42.08,99.52,67.43Z"/><path d="M971.36,561.31c3.1,.26,5.32,.44,6.55,.44v-13.13c-1.03,0-2.87-.17-5.44-.38-49.99-4.21-93.1,1.94-129.77,13.73-1.62-9.05-3.33-18.57-5.22-28.66-6.73-35.92,4.95-83.35,19.71-125.17-99.33,11.95-184.84,45.14-255.64,99.49-7.8,5.99-15.26,12.18-22.47,18.49,28.07,29.99,55.01,62.62,80.27,97.97,23.26,1.51,47.03,2.46,71.31,2.87-2.47,2.23-4.86,4.46-7.16,6.66-.05,.05-.1,.1-.15,.14-19.94-.4-39.54-1.17-58.77-2.34,8.42,12.03,16.62,24.38,24.61,37.04-1.55,1.66-3.08,3.32-4.6,4.98-9.18-14.63-18.65-28.86-28.41-42.64-53.85-3.61-104.88-10.27-153.04-19.96-11.49,16.24-21.87,32.66-30.96,48.98,49.93,15.03,108.51,47.35,157.98,79.33-42.26,56.67-60.98,97.2-61.26,97.83l11.95,5.44c.28-.62,18.68-40.39,60.31-96.07,22.74,15.08,43.12,29.77,59.29,42.23,.7,.54,1.38,1.07,2.07,1.6,.4,.31,.8,.62,1.2,.93,.62,.49,1.23,.96,1.84,1.44,13.98,10.97,24.22,19.88,29.26,25.26,24,25.68,122.94,131.31,190.42,131.31,13.02,0,24.88-3.94,34.79-13.14,61.28-56.9-52.52-210.08-78.78-249.47-11.47-17.2-18.76-35.24-24.43-55.94-.56-2.06-1.11-4.14-1.64-6.25,0,0,0,0,0,0,0,0,0,0,0,0-3.75-14.83-6.84-31.03-10.13-49.24,35.57-11.69,77.53-17.86,126.3-13.74Zm-137.77,17.78c3.01,16.62,5.92,31.77,9.4,45.86-31.6,1.6-62.39,2.32-92.41,2.2,21.77-17.85,49.31-35.39,83.01-48.06Zm-185.14,157.66c12.52-16.24,26.93-33.65,43.33-51.69,17.55,28.93,33.89,59.48,48.7,91.77-8.64,2.61-17.28,5.11-25.93,7.51-17.22-13.6-40.11-30.34-66.1-47.59Zm95.14,72.84c-4.34-4.64-12.18-11.64-22.74-20.21,7.44-2.1,14.87-4.28,22.3-6.53,6.9,15.35,13.56,30.98,19.81,47.03-8.52-8.69-15.2-15.83-19.37-20.29Zm204.44,11.99c10.72,24.49,16.68,45.73,17.72,63.11,1.12,18.87-3.42,32.76-13.88,42.48-7.2,6.69-15.91,9.94-26.63,9.94-25.39,0-61.32-18.44-103.91-53.31-17.54-14.37-33.81-29.53-47.19-42.7-7.62-20.67-15.88-40.67-24.62-60.16,48.27-14.94,96.25-33.55,142.94-56.62,17.37,25.96,40.09,61.91,55.57,97.28Zm-76.76-128.44c2.15,3.22,4.83,7.13,7.94,11.67,2.83,4.12,6.06,8.83,9.57,14.03-46.34,22.85-93.95,41.28-141.86,56.06-15.3-33.47-32.28-65.03-50.53-94.88,11.17-12.1,23.23-24.46,36.22-36.93,3.12-2.99,6.4-6.01,9.84-9.04,4.13,.03,8.28,.06,12.44,.06,29.12,0,59.15-1,89.76-2.63,6.04,22.67,13.91,42.62,26.61,61.67Z"/></svg>