<?xml version="1.0" encoding="UTF-8"?><svg id="Layer_1" xmlns="http://www.w3.org/2000/svg" viewBox="0 0 16 16"><g><path d="M15.32,.55c-.88-.81-2.25-.75-3.06,.13-1.47,1.61-2.89,3.27-4.28,4.95l-1.64,2.01,2.01,2.01,2.01-1.64c1.68-1.39,3.35-2.81,4.95-4.28,.04-.04,.09-.09,.13-.13,.81-.88,.75-2.25-.13-3.06Z" fill="#999"/><path d="M5.24,9.05c-.43,.59-.84,1.21-1.15,1.92-.08,.18-.09,.39,0,.58,.16,.36,.59,.52,.95,.36,.71-.32,1.33-.72,1.92-1.15l-1.71-1.71Z" fill="#999"/></g><path d="M11.01,8.79l-3.01,2.44-.45,.34c-.75,.55-1.42,.96-2.1,1.26-.23,.1-.46,.15-.7,.15-.66,0-1.29-.38-1.57-1.02-.2-.44-.2-.95,0-1.4,.31-.69,.71-1.36,1.26-2.11l.39-.53,2.38-2.92c.26-.31,.54-.64,.82-.98H3c-1.1,0-2,.9-2,2v7c0,1.1,.9,2,2,2h7c1.1,0,2-.9,2-2V7.96c-.35,.29-.68,.57-.99,.83Z" fill="#999"/></svg>