<svg xmlns="http://www.w3.org/2000/svg" viewBox="390 835 16 16.012">
  <defs>
    <style>
      .cls-1 {
        fill: #dadada;
      }
    </style>
  </defs>
  <path id="White_1_" class="cls-1" d="M15.124,0H.882A.883.883,0,0,0,0,.882V15.118A.883.883,0,0,0,.882,16H8.546V9.805H6.459V7.388H8.546V5.613a2.909,2.909,0,0,1,3.106-3.19,16.956,16.956,0,0,1,1.865.1V4.678H12.24c-1,0-1.2.474-1.2,1.175V7.394h2.393l-.312,2.417H11.04v6.2h4.078A.883.883,0,0,0,16,15.13V.882A.874.874,0,0,0,15.124,0Z" transform="translate(390 835)"/>
</svg>
