<svg xmlns="http://www.w3.org/2000/svg" viewBox="438 835 16 15.566">
  <defs>
    <style>
      .cls-1 {
        fill: #dadada;
        fill-rule: evenodd;
      }
    </style>
  </defs>
  <path id="패스_3" data-name="패스 3" class="cls-1" d="M7.976,0A7.99,7.99,0,0,0,5.431,15.56c.391.049.538-.2.538-.391V13.8c-2.2.489-2.691-1.076-2.691-1.076A2.02,2.02,0,0,0,2.4,11.547c-.734-.489.049-.489.049-.489a1.7,1.7,0,0,1,1.223.832,1.694,1.694,0,0,0,2.3.685A1.7,1.7,0,0,1,6.459,11.5c-1.761-.2-3.621-.881-3.621-3.963A3.033,3.033,0,0,1,3.67,5.382a2.9,2.9,0,0,1,.1-2.055s.685-.2,2.2.832a6.837,6.837,0,0,1,2.006-.245,9.006,9.006,0,0,1,2.006.245c1.517-1.028,2.2-.832,2.2-.832a3.064,3.064,0,0,1,.1,2.1,3.165,3.165,0,0,1,.832,2.153c0,3.083-1.859,3.719-3.621,3.914a1.869,1.869,0,0,1,.538,1.468v2.2c0,.2.147.44.538.391A7.99,7.99,0,0,0,7.976,0Z" transform="translate(438 835)"/>
</svg>
