<?xml version="1.0" encoding="UTF-8"?><svg id="Layer_1" xmlns="http://www.w3.org/2000/svg" viewBox="0 0 16 16"><path d="M8,1.44c2.14,0,2.39,0,3.23,.05,.78,.04,1.2,.17,1.49,.28,.37,.15,.64,.32,.92,.6s.45,.55,.6,.92c.11,.28,.24,.71,.28,1.49,.04,.84,.05,1.1,.05,3.23s0,2.39-.05,3.23c-.04,.78-.17,1.2-.28,1.49-.15,.37-.32,.64-.6,.92-.28,.28-.55,.45-.92,.6-.28,.11-.71,.24-1.49,.28-.84,.04-1.1,.05-3.23,.05s-2.39,0-3.23-.05c-.78-.04-1.2-.17-1.49-.28-.37-.15-.64-.32-.92-.6-.28-.28-.45-.55-.6-.92-.11-.28-.24-.71-.28-1.49-.04-.84-.05-1.1-.05-3.23s0-2.39,.05-3.23c.04-.78,.17-1.2,.28-1.49,.15-.37,.32-.64,.6-.92,.28-.28,.55-.45,.92-.6,.28-.11,.71-.24,1.49-.28,.84-.04,1.1-.05,3.23-.05m0-1.44c-2.17,0-2.45,0-3.3,.05-.85,.04-1.43,.17-1.94,.37-.53,.2-.97,.48-1.42,.92-.44,.44-.72,.89-.92,1.42C.22,3.27,.09,3.85,.05,4.7c-.04,.85-.05,1.13-.05,3.3s0,2.45,.05,3.3c.04,.85,.17,1.43,.37,1.94,.2,.53,.48,.97,.92,1.42,.44,.44,.89,.72,1.42,.92,.51,.2,1.09,.33,1.94,.37,.85,.04,1.13,.05,3.3,.05s2.45,0,3.3-.05c.85-.04,1.43-.17,1.94-.37,.53-.2,.97-.48,1.42-.92,.44-.44,.72-.89,.92-1.42,.2-.51,.33-1.09,.37-1.94,.04-.85,.05-1.13,.05-3.3s0-2.45-.05-3.3c-.04-.85-.17-1.43-.37-1.94-.2-.53-.48-.97-.92-1.42-.44-.44-.89-.72-1.42-.92-.51-.2-1.09-.33-1.94-.37-.85-.04-1.13-.05-3.3-.05Zm0,3.89c-2.27,0-4.11,1.84-4.11,4.11s1.84,4.11,4.11,4.11,4.11-1.84,4.11-4.11-1.84-4.11-4.11-4.11Zm0,6.77c-1.47,0-2.67-1.19-2.67-2.67s1.19-2.67,2.67-2.67,2.67,1.19,2.67,2.67-1.19,2.67-2.67,2.67ZM13.23,3.73c0,.53-.43,.96-.96,.96s-.96-.43-.96-.96,.43-.96,.96-.96,.96,.43,.96,.96Z" fill="#999"/></svg>