<svg xmlns="http://www.w3.org/2000/svg" viewBox="462 835 16 16">
  <defs>
    <style>
      .cls-1 {
        fill: #dadada;
      }
    </style>
  </defs>
  <path id="패스_4" data-name="패스 4" class="cls-1" d="M14.815,0H1.178A1.167,1.167,0,0,0,0,1.156v13.7A1.165,1.165,0,0,0,1.178,16H14.815A1.173,1.173,0,0,0,16,14.844V1.156A1.173,1.173,0,0,0,14.815,0ZM4.748,13.637H2.37V6H4.748ZM3.556,4.956A1.378,1.378,0,1,1,4.933,3.578,1.375,1.375,0,0,1,3.556,4.956ZM13.63,13.637h-2.37V9.926c0-.889-.015-2.022-1.237-2.022S8.6,8.867,8.6,9.867v3.778H6.23V6H8.5V7.044h.03a2.491,2.491,0,0,1,2.244-1.23c2.4,0,2.844,1.578,2.844,3.637v4.185Z" transform="translate(462 835)"/>
</svg>
