<svg xmlns="http://www.w3.org/2000/svg" viewBox="1369 229.244 160.813 153.574">
  <defs>
    <style>
      .cls-1 {
        fill: #ccc;
      }
    </style>
  </defs>
  <path id="패스_1" data-name="패스 1" class="cls-1" d="M144.934,107.356l-1.4-2.1c-3.5-5.367-4.667-11.2-6.3-19.6a55.259,55.259,0,0,1,21.233-2.1h1.167V81.223H158.7a59.025,59.025,0,0,0-21.933,2.1,36.222,36.222,0,0,0-.933-4.9c-2.1-10.733,5.6-27.767,9.1-35a16.087,16.087,0,0,0,.933-2.333c3.033-7,7.467-20.3,3.5-29.867a16.721,16.721,0,0,0-9.567-9.1c-16.567-6.533-23.8,3.033-31.5,13.3a51.251,51.251,0,0,1-3.267,4.2c-10.267,12.833-20.533,18.433-35,18.9A46.335,46.335,0,0,1,37.368,26.39c-1.867-1.633-3.733-3.5-5.833-5.6C21.5,10.99,9.835-.444,3.3,4.69c-7.7,6.067-.7,25.667,7.467,44.1,7.467,17.033,3.267,33.833,0,40.133l-.233.467c-2.1,4.2-4.9,9.8-3.033,15.167,1.167,3.5,4.433,6.3,9.1,8.4,8.4,3.733,15.867-.467,23.567-4.9,5.833-3.267,11.9-6.767,18.9-7.467,9.567-.933,25.2,7.233,37.8,15.4-7,9.567-10.033,16.333-10.267,16.333l2.1.933a94.493,94.493,0,0,1,10.033-16.1,118.465,118.465,0,0,1,16.567,12.6c10.733,11.667,24.5,23.8,34.767,23.8a10.289,10.289,0,0,0,7-2.8C168.034,141.19,151.934,117.39,144.934,107.356Zm-1.867,1.167c.467.7,1.167,1.633,1.867,2.567a179.767,179.767,0,0,1-26.133,10.5q-4.2-8.75-9.1-16.8c2.1-2.1,4.2-4.433,6.533-6.533a13.338,13.338,0,0,1,1.867-1.633h2.1c5.6,0,11.2-.233,17.033-.467a32.392,32.392,0,0,0,4.433,10.5A7.648,7.648,0,0,0,143.068,108.523ZM108.3,102.69a64.173,64.173,0,0,0-4.433-6.533c3.5.233,7,.233,10.5.467C112.268,98.49,110.4,100.59,108.3,102.69Zm28.467-7.7c-6.067.233-11.667.467-17.5.467A54.988,54.988,0,0,1,134.9,86.59C135.6,89.623,136.068,92.423,136.768,94.99ZM133.5,78.89c.233,1.867.7,3.5.933,5.133a52.877,52.877,0,0,0-18.667,11.2c-4.433,0-8.633-.233-12.6-.467a178.5,178.5,0,0,0-14.233-17.5A26.859,26.859,0,0,1,92.9,73.99q18.55-14,44.1-17.5C134.434,63.956,132.334,72.356,133.5,78.89ZM15.9,56.956a81.473,81.473,0,0,1,4.433-9.1c1.167,0,2.567.233,3.733.233a57.278,57.278,0,0,0,18.9-3.033c.933-.233,1.633-.7,2.567-.933h.233A195.792,195.792,0,0,1,64.2,56.49,136.384,136.384,0,0,0,53.234,84.956,119.384,119.384,0,0,1,17.3,64.89C16.834,62.556,16.6,59.756,15.9,56.956ZM19.634,46.69c-2.567-.233-5.133-.467-7.7-.933a193.947,193.947,0,0,1-7.7-21.233c7.467,2.8,15.633,6.3,24.267,10.5A73.153,73.153,0,0,0,19.634,46.69Zm10.033-11.2c4.9,2.333,9.8,5.133,14.7,7.933a3.372,3.372,0,0,1-1.633.467,56.785,56.785,0,0,1-21.7,2.8A79.577,79.577,0,0,1,29.668,35.49ZM64.9,57.423A214.963,214.963,0,0,1,87.068,77.256,93.322,93.322,0,0,0,74.934,91.023a142.5,142.5,0,0,1-20.767-5.6A151.959,151.959,0,0,1,64.9,57.423ZM88,78.19a160.391,160.391,0,0,1,13.533,16.567A209.89,209.89,0,0,1,76.1,91.49,78.587,78.587,0,0,1,88,78.19ZM139.1,4.223l1.4.7a116.025,116.025,0,0,0-25.667,5.833C120.9,3.756,127.2-.444,139.1,4.223Zm-28.933,12.6c1.167-1.4,2.1-2.8,3.033-3.967A108.43,108.43,0,0,1,142.134,6.09a14.376,14.376,0,0,1,5.133,6.067c3.733,8.867-.467,21.233-3.5,28,0,.233-.233.233-.233.467-10.967-6.767-22.867-13.533-35.7-20.533A39.582,39.582,0,0,1,110.168,16.823Zm-3.267,4.2h0c12.367,6.533,24.5,13.533,36.167,20.767,0,.233-.233.467-.233.7-1.4,3.033-3.5,7.7-5.367,13.067C119.968,57.89,104.8,63.723,92.2,73.29c-1.4,1.167-2.8,2.1-3.967,3.267a195.148,195.148,0,0,0-22.4-20.067,85.085,85.085,0,0,1,10.5-15.867C88.234,38.523,97.568,32.69,106.9,21.023ZM70.268,40.856c1.4,0,2.8-.233,3.967-.233a137.481,137.481,0,0,0-9.8,14.933c-6.067-4.433-11.9-8.4-17.733-11.9,3.033-1.4,6.067-2.8,8.867-4.433A52.663,52.663,0,0,0,70.268,40.856Zm-16.1-2.1a58.989,58.989,0,0,1-8.633,4.2c-5.133-3.033-10.267-5.833-15.167-8.4a74.418,74.418,0,0,1,6.067-6.067A48.434,48.434,0,0,0,54.168,38.756ZM4.7,6.556c4.9-3.967,16.8,7.7,25.433,16.1L35.5,28.023a80.186,80.186,0,0,0-6.3,6.3,193.124,193.124,0,0,0-25.433-11.2C1.9,15.423,1.435,9.123,4.7,6.556Zm7.933,40.367a62.9,62.9,0,0,0,6.533.933,41.354,41.354,0,0,0-3.5,7.233A54.273,54.273,0,0,0,13.1,47.856,1.212,1.212,0,0,1,12.635,46.923Zm-2.8,56.933c-1.4-3.967.467-8.633,2.333-12.133A83.66,83.66,0,0,0,19.4,111.79a3.372,3.372,0,0,0-1.633-.467C13.568,109.223,10.768,106.656,9.835,103.856Zm29.4,2.333c-6.533,3.733-12.367,7-18.433,5.833A78.027,78.027,0,0,1,12.868,90.09a51.871,51.871,0,0,0,4.2-23.333,127.278,127.278,0,0,0,35.467,19.6c-1.167,4.667-2.333,9.8-3.267,14.933C45.768,102.456,42.268,104.556,39.234,106.19Zm21.7-7.7H59.3a27.533,27.533,0,0,0-8.633,2.1c.933-4.9,2.1-9.567,3.267-14a128.914,128.914,0,0,0,20.3,5.6c-1.867,2.567-3.267,5.133-4.9,7.7A30,30,0,0,0,60.934,98.49Zm9.567,1.633a70.57,70.57,0,0,1,4.9-7.7,241.847,241.847,0,0,0,27.3,3.5c1.633,2.333,3.5,4.9,5.133,7.7a107.013,107.013,0,0,0-8.867,10.733C89.868,108.756,79.368,102.923,70.5,100.123Zm38.267,5.6a153.909,153.909,0,0,1,8.633,16.333,54.478,54.478,0,0,1-5.833,1.633c-3.033-2.333-6.767-5.133-11.2-7.933C102.934,112.49,105.734,109.223,108.768,105.723Zm8.633,22.633a47.436,47.436,0,0,0-4.433-3.967c1.633-.467,3.5-.933,5.133-1.4a70.369,70.369,0,0,1,4.2,10.5C120.668,131.856,119.034,130.223,117.4,128.356Zm38.267,21c-5.6,5.133-16.8,0-31.5-14-1.633-4.433-3.267-8.633-5.133-12.6a193.821,193.821,0,0,0,26.367-10.5C152.4,122.523,163.834,141.656,155.668,149.356Z" transform="translate(1369.026 229.261)"/>
</svg>
