<svg xmlns="http://www.w3.org/2000/svg" viewBox="414 837.346 16 12.994">
  <defs>
    <style>
      .cls-1 {
        fill: #999;
      }
    </style>
  </defs>
  <path id="패스_2" data-name="패스 2" class="cls-1" d="M35.9,40.335a6.538,6.538,0,0,1-1.887.52,3.255,3.255,0,0,0,1.439-1.815,6.654,6.654,0,0,1-2.087.8A3.276,3.276,0,0,0,27.7,42.078a3.388,3.388,0,0,0,.088.752,9.306,9.306,0,0,1-6.765-3.43,3.276,3.276,0,0,0,1.015,4.382,3.33,3.33,0,0,1-1.487-.408v.04a3.271,3.271,0,0,0,2.631,3.214,3.409,3.409,0,0,1-.864.112,3.917,3.917,0,0,1-.616-.056,3.281,3.281,0,0,0,3.062,2.279,6.577,6.577,0,0,1-4.078,1.407,6.344,6.344,0,0,1-.784-.048,9.332,9.332,0,0,0,14.361-7.86c0-.144,0-.28-.008-.424a6.8,6.8,0,0,0,1.647-1.7" transform="translate(394.1 798.546)"/>
</svg>
